<svg xmlns="http://www.w3.org/2000/svg" viewBox="0 0 480 300" preserveAspectRatio="xMaxYMid meet" fill="none" stroke="currentColor" stroke-width="4" stroke-linecap="round" stroke-linejoin="round" aria-hidden="true"><path d="M103 100 C119 49 196 39 263 47 C333 54 411 90 407 158 C403 221 341 267 267 254 C190 241 86 254 78 198 C72 154 85 133 103 100Z" fill="currentColor" stroke="none" opacity=".06"/><rect x="127" y="71" width="231" height="159" rx="15" fill="var(--hero-paper, white)" stroke="var(--hero-ink, currentColor)" /><path d="M128 100 H357" fill="none" stroke="currentColor" stroke-width="3"/><circle cx="145" cy="86" r="2.5" fill="currentColor" stroke="none" /><circle cx="156" cy="86" r="2.5" fill="currentColor" stroke="none" /><circle cx="167" cy="86" r="2.5" fill="currentColor" stroke="none" /><rect x="146" y="118" width="67" height="91" rx="7" fill="var(--hero-soft, #eef5ff)" stroke="none" /><path d="M161 142 L173 130 L199 160 H151Z" fill="currentColor" stroke="none" opacity=".35"/><path d="M155 179 h48" fill="none" stroke="var(--hero-ink, currentColor)" stroke-width="4"/><path d="M155 191 h33" fill="none" stroke="var(--hero-ink, currentColor)" stroke-width="4"/><path d="M238 131 L225 145 L238 159 M280 131 L293 145 L280 159 M265 126 L251 166" fill="none" stroke="currentColor" stroke-width="5"/><path d="M231 187 h62" fill="none" stroke="var(--hero-ink, currentColor)" stroke-width="4"/><path d="M231 201 h92" fill="none" stroke="var(--hero-ink, currentColor)" stroke-width="4"/><rect x="331" y="180" width="8" height="22" rx="2" fill="currentColor" stroke="none" /><path d="M103 108 H89 Q76 108 76 123 V140 Q76 150 64 150 Q76 150 76 160 V177 Q76 192 89 192 H103 M380 108 H393 Q406 108 406 123 V140 Q406 150 418 150 Q406 150 406 160 V177 Q406 192 393 192 H380" fill="none" stroke="currentColor" stroke-width="5"/><g transform="translate(330 47) scale(0.6)" ><path d="M0 -12 Q2 -2 12 0 Q2 2 0 12 Q-2 2 -12 0 Q-2 -2 0 -12" fill="currentColor" stroke="none" /></g><g transform="translate(112 248) scale(0.6)" ><path d="M-8 0 H8 M0 -8 V8" fill="none" stroke="currentColor" stroke-width="3"/></g></svg>
